<svg width="21" height="20" viewBox="0 0 21 20" fill="none" xmlns="http://www.w3.org/2000/svg">
<path d="M4.46639 5.625H0.0822754V20H4.46639V5.625Z" fill="#007BB5"/>
<path d="M15.1155 5.625C12.6084 5.625 11.9132 6.445 11.3558 7.5V5.625H6.97168V20H11.3558V11.875C11.3558 10.625 11.3558 9.375 13.5479 9.375C15.7399 9.375 15.7399 10.625 15.7399 11.875V20H20.124V11.875C20.124 8.125 19.4977 5.625 15.1155 5.625Z" fill="#007BB5"/>
<path d="M2.27433 4.375C3.48497 4.375 4.46639 3.39562 4.46639 2.1875C4.46639 0.979377 3.48497 0 2.27433 0C1.06369 0 0.0822754 0.979377 0.0822754 2.1875C0.0822754 3.39562 1.06369 4.375 2.27433 4.375Z" fill="#007BB5"/>
</svg>
