<svg width="199" height="39" viewBox="0 0 199 39" fill="none" xmlns="http://www.w3.org/2000/svg">
<path d="M7.03056 21.3462C5.61648 20.6589 4.68386 20.0615 4.25624 19.5677C3.8469 19.1047 3.64799 18.6368 3.64799 18.1373C3.64799 17.5772 3.8851 17.0976 4.37315 16.6712C4.86827 16.2382 5.44787 16.0278 6.14519 16.0278C7.27244 16.0278 8.45732 16.59 9.66706 17.6989C9.7298 17.7564 9.81064 17.7859 9.90153 17.7867C9.98897 17.7855 10.0721 17.7513 10.133 17.692L11.6709 16.1914C11.7317 16.132 11.765 16.0524 11.7636 15.9698C11.762 15.8872 11.7259 15.8086 11.6632 15.7513C9.87354 14.1195 8.05786 13.292 6.26605 13.292C4.71283 13.292 3.40661 13.7666 2.38326 14.7028C1.35727 15.6417 0.836955 16.8351 0.836955 18.2503C0.836955 19.3339 1.16298 20.3125 1.80613 21.1586C2.4478 22.0032 3.60617 22.8262 5.34858 23.6749C6.8659 24.4056 7.84561 25.01 8.25825 25.4684C8.65639 25.9208 8.84986 26.4205 8.84986 26.9962C8.84986 27.6965 8.55447 28.2917 7.94671 28.8158C7.33007 29.3473 6.60179 29.6059 5.72021 29.6059C4.45482 29.6059 3.22993 28.9842 2.0793 27.7581C2.01673 27.6915 1.92699 27.6534 1.83281 27.6534C1.83264 27.6534 1.83248 27.6534 1.83215 27.6534C1.7378 27.6536 1.6479 27.692 1.58566 27.759L0.0821632 29.3727C-0.0225592 29.485 -0.0276617 29.6514 0.0696511 29.7694C0.737503 30.5789 1.59158 31.2224 2.60851 31.6821C3.62412 32.1413 4.70526 32.3741 5.8223 32.3741C7.51268 32.3741 8.94322 31.8392 10.0746 30.7837C11.2069 29.7271 11.7811 28.4201 11.7811 26.8993C11.7811 25.8155 11.4432 24.8257 10.7739 23.9537C10.0975 23.101 8.87341 22.2482 7.03056 21.3462Z" fill="white"/>
<path d="M30.2303 13.7445H27.7873C27.6055 13.7445 27.4579 13.8839 27.4579 14.0556V22.2528C27.4579 24.4036 27.3428 25.8201 27.1159 26.4617C26.787 27.3822 26.1812 28.1358 25.3154 28.7016C24.4462 29.2699 23.3665 29.558 22.1064 29.558C20.8456 29.558 19.7483 29.2615 18.8449 28.6766C17.9493 28.097 17.3335 27.2954 17.0163 26.298C16.7977 25.5773 16.6868 24.2162 16.6868 22.2527V14.0554C16.6868 13.8837 16.5393 13.7444 16.3575 13.7444H13.9655C13.7838 13.7444 13.6362 13.8837 13.6362 14.0554V22.5108C13.6362 25.0394 13.9479 26.9692 14.5628 28.2469C15.1862 29.5419 16.1436 30.5652 17.4084 31.2888C18.668 32.0091 20.2517 32.3744 22.1151 32.3744C23.9789 32.3744 25.557 32.0088 26.8057 31.288C28.0586 30.5645 29.0097 29.5498 29.6324 28.2724C30.2476 27.0108 30.5596 25.1266 30.5596 22.6721V14.0553C30.5596 13.8837 30.4121 13.7445 30.2303 13.7445Z" fill="white"/>
<path d="M43.2425 13.292C41.6821 13.292 40.2466 13.6136 38.9754 14.2478C37.9588 14.7551 37.0279 15.4725 36.1986 16.3861V14.0548C36.1986 13.8831 36.0511 13.7438 35.8693 13.7438H33.4775C33.2957 13.7438 33.1482 13.8831 33.1482 14.0548V38.0334C33.1482 38.2051 33.2957 38.3444 33.4775 38.3444H35.8693C36.0511 38.3444 36.1986 38.2051 36.1986 38.0334V29.4171C37.0766 30.2941 38.0446 30.9829 39.0853 31.4703C40.3655 32.0699 41.7873 32.374 43.3107 32.374C46.0192 32.374 48.3637 31.4329 50.2795 29.5773C52.1933 27.7237 53.1638 25.4383 53.1638 22.7845C53.1638 20.1838 52.1844 17.9279 50.2527 16.0793C48.3198 14.2299 45.9612 13.292 43.2425 13.292ZM50.079 22.8573C50.079 24.0336 49.7548 25.1754 49.1156 26.251C48.4767 27.3256 47.6081 28.1733 46.5337 28.7705C45.4598 29.3677 44.2973 29.6705 43.079 29.6705C41.8354 29.6705 40.6365 29.3692 39.5155 28.7753C38.3983 28.1833 37.5291 27.3721 36.9317 26.3642C36.3317 25.3527 36.0277 24.1946 36.0277 22.9219C36.0277 20.9848 36.7101 19.3444 38.0555 18.0461C39.3998 16.7499 41.0783 16.0925 43.0448 16.0925C44.309 16.0925 45.4921 16.3902 46.5609 16.9771C47.6289 17.5637 48.4912 18.4004 49.1238 19.4638C49.7577 20.5292 50.079 21.6709 50.079 22.8573Z" fill="white"/>
<path d="M64.5468 13.292C61.3764 13.292 58.8094 14.4506 56.9174 16.7351C55.4298 18.5257 54.6755 20.5936 54.6755 22.8814C54.6755 25.3137 55.5653 27.5237 57.3203 29.45C59.0875 31.3902 61.565 32.374 64.6838 32.374C66.0855 32.374 67.3622 32.1688 68.4785 31.7643C69.5952 31.3595 70.6144 30.7606 71.5077 29.9843C72.3986 29.21 73.1933 28.1816 73.8695 26.9275C73.9514 26.7757 73.8888 26.5902 73.7292 26.511L71.7133 25.5106C71.5581 25.4338 71.3676 25.4846 71.2778 25.6257C70.5691 26.739 69.9065 27.552 69.3082 28.0425C68.7139 28.5299 67.9802 28.9271 67.1271 29.2232C66.2727 29.5199 65.3814 29.6703 64.4783 29.6703C62.6188 29.6703 61.0353 29.0442 59.7715 27.8093C58.5723 26.6373 57.9124 25.1289 57.807 23.3215H74.1911C74.2789 23.3215 74.3632 23.2884 74.4251 23.2295C74.4868 23.1705 74.5212 23.0906 74.5204 23.0077C74.4965 20.5488 73.7824 18.4652 72.3976 16.8154C70.4483 14.4775 67.8068 13.292 64.5468 13.292ZM58.149 20.747C58.6143 19.3938 59.2683 18.3562 60.0959 17.6592C61.3394 16.609 62.8482 16.0764 64.5807 16.0764C65.633 16.0764 66.6508 16.2893 67.6063 16.7088C68.5583 17.1275 69.3329 17.6844 69.9082 18.3638C70.4201 18.9683 70.8303 19.7688 71.1301 20.747H58.149Z" fill="white"/>
<path d="M86.6037 13.9287C85.8051 13.5061 85.0381 13.292 84.324 13.292C83.3859 13.292 82.4746 13.5615 81.6152 14.0931C80.9944 14.477 80.3925 15.0084 79.8185 15.6784V14.0548C79.8185 13.8831 79.6709 13.7438 79.4891 13.7438H77.0461C76.8643 13.7438 76.7168 13.8831 76.7168 14.0548V31.6112C76.7168 31.7829 76.8643 31.9222 77.0461 31.9222H79.4891C79.6709 31.9222 79.8185 31.7829 79.8185 31.6112V25.6729C79.8185 22.6701 79.9638 20.6569 80.2505 19.6898C80.6182 18.4528 81.1542 17.5339 81.8431 16.9583C82.5179 16.3945 83.2201 16.1085 83.9311 16.1085C84.2257 16.1085 84.6072 16.2031 85.0653 16.3897C85.2151 16.451 85.39 16.3991 85.4758 16.2678L86.7229 14.3637C86.7702 14.2915 86.7841 14.2043 86.7616 14.1221C86.739 14.0399 86.6819 13.97 86.6037 13.9287Z" fill="white"/>
<path d="M98.9349 13.7747C98.2316 13.4544 97.5455 13.292 96.8954 13.292C95.9791 13.292 95.1244 13.5376 94.3549 14.022C93.897 14.3103 93.4913 14.6806 93.1414 15.1286V14.055C93.1414 13.8833 92.9939 13.7439 92.8121 13.7439H88.8142C88.6324 13.7439 88.4849 13.8833 88.4849 14.055V31.6113C88.4849 31.783 88.6324 31.9224 88.8142 31.9224H93.4442C93.626 31.9224 93.7735 31.783 93.7735 31.6113V24.5055L93.7564 23.6562C93.7564 21.2684 93.9925 19.658 94.458 18.8699C94.8945 18.1304 95.3956 17.7709 95.9898 17.7709C96.2896 17.7709 96.6942 17.8901 97.1923 18.1253C97.2766 18.1649 97.3743 18.1688 97.4618 18.1359C97.5491 18.1029 97.6173 18.0363 97.6494 17.9528L99.1015 14.1607C99.159 14.0106 99.087 13.8439 98.9349 13.7747Z" fill="white"/>
<path d="M108.447 13.292C105.611 13.292 103.218 14.2167 101.335 16.0403C99.4528 17.8618 98.4988 20.1798 98.4988 22.93C98.4988 25.6176 99.4564 27.8873 101.345 29.6767C103.235 31.4665 105.71 32.3741 108.703 32.3741C110.624 32.3741 112.311 32.046 113.716 31.3987C115.127 30.7493 116.353 29.7356 117.361 28.3858C117.417 28.3107 117.435 28.2158 117.41 28.1268C117.385 28.038 117.32 27.964 117.232 27.925L113.302 26.1823C113.178 26.1272 113.031 26.1507 112.933 26.2409C111.749 27.3281 110.315 27.8794 108.669 27.8794C107.297 27.8794 106.157 27.5317 105.283 26.8458C104.502 26.2339 103.984 25.4187 103.739 24.4192H118.322C118.501 24.4192 118.648 24.2836 118.651 24.1142L118.668 23.2691C118.668 20.2943 117.711 17.8621 115.824 16.0403C113.934 14.2165 111.452 13.292 108.447 13.292ZM104.068 20.3274C104.503 19.5265 104.967 18.9509 105.451 18.613C106.37 17.9684 107.455 17.6416 108.677 17.6416C109.8 17.6416 110.797 17.9315 111.643 18.5033C112.358 18.9865 112.878 19.5988 113.193 20.3275H104.068V20.3274Z" fill="white"/>
<path d="M139.778 13.7439H135.114C134.932 13.7439 134.784 13.8833 134.784 14.055V15.2717C134.081 14.6933 133.326 14.2382 132.531 13.9144C131.515 13.5015 130.415 13.292 129.261 13.292C126.753 13.292 124.594 14.1996 122.841 15.9899C121.096 17.7732 120.211 20.0865 120.211 22.8653C120.211 25.5491 121.126 27.8278 122.929 29.6378C124.737 31.4535 126.913 32.374 129.397 32.374C130.505 32.374 131.549 32.1841 132.502 31.8096C133.263 31.5099 134.028 31.0546 134.784 30.4521V31.6112C134.784 31.7829 134.932 31.9222 135.114 31.9222H139.778C139.96 31.9222 140.107 31.7829 140.107 31.6112V14.055C140.107 13.8833 139.96 13.7439 139.778 13.7439ZM134.989 22.8009C134.989 24.2713 134.533 25.4725 133.632 26.3711C132.724 27.2774 131.61 27.718 130.227 27.718C128.891 27.718 127.797 27.2699 126.883 26.348C125.977 25.4334 125.517 24.2455 125.517 22.817C125.517 21.3995 125.968 20.2251 126.858 19.3262C127.755 18.4208 128.851 17.9805 130.21 17.9805C131.606 17.9805 132.725 18.4138 133.634 19.3052C134.533 20.1877 134.989 21.3639 134.989 22.8009Z" fill="white"/>
<path d="M157.833 14.3655C156.324 13.6531 154.602 13.292 152.714 13.292C150.676 13.292 148.804 13.717 147.151 14.5554C145.493 15.3963 144.183 16.5697 143.257 18.043C142.33 19.5159 141.861 21.1493 141.861 22.8976C141.861 25.4218 142.825 27.6548 144.728 29.5347C146.635 31.4188 149.299 32.3741 152.646 32.3741C156.37 32.3741 159.297 31.0977 161.347 28.58C161.402 28.5122 161.425 28.426 161.411 28.3416C161.397 28.2572 161.347 28.182 161.272 28.1337L157.594 25.7552C157.453 25.6639 157.261 25.69 157.153 25.8151C156.046 27.0954 154.534 27.7178 152.533 27.7178C150.941 27.7178 149.643 27.2703 148.673 26.3872C147.694 25.4953 147.218 24.3722 147.218 22.9537C147.218 21.4924 147.713 20.3297 148.733 19.3996C149.742 18.4794 151.09 18.0127 152.738 18.0127C153.648 18.0127 154.448 18.1458 155.118 18.4083C155.785 18.6704 156.475 19.1509 157.17 19.8367C157.273 19.9384 157.436 19.9622 157.567 19.8943L161.45 17.8772C161.531 17.8349 161.59 17.7618 161.611 17.6763C161.633 17.5908 161.615 17.5006 161.562 17.4281C160.6 16.1103 159.346 15.0798 157.833 14.3655Z" fill="white"/>
<path d="M173.595 13.2913C172.61 13.2913 171.624 13.4869 170.664 13.8729C169.899 14.1808 169.13 14.6169 168.372 15.1724V7.27685C168.372 7.10516 168.224 6.96582 168.043 6.96582H163.413C163.231 6.96582 163.083 7.10516 163.083 7.27685V31.6105C163.083 31.7821 163.231 31.9215 163.413 31.9215H168.043C168.224 31.9215 168.372 31.7821 168.372 31.6105V24.5589C168.372 22.7104 168.438 21.5193 168.568 21.0175C168.813 20.061 169.255 19.2989 169.881 18.7522C170.501 18.2107 171.225 17.9474 172.092 17.9474C172.744 17.9474 173.295 18.1053 173.729 18.4168C174.163 18.7273 174.476 19.214 174.661 19.8634C174.858 20.5542 174.957 21.917 174.957 23.9135V31.6105C174.957 31.7821 175.105 31.9215 175.287 31.9215H179.883C180.064 31.9215 180.212 31.7821 180.212 31.6105V20.0083C180.212 17.9114 179.634 16.2909 178.493 15.1906C177.171 13.9303 175.523 13.2913 173.595 13.2913Z" fill="white"/>
<path d="M181.736 3.33891L175.005 0.0351242C174.903 -0.0151075 174.781 -0.0112193 174.682 0.0452331C174.584 0.101685 174.524 0.20246 174.524 0.31101V2.32883C174.524 2.44485 174.592 2.55138 174.701 2.60472L178.54 4.48926L174.701 6.37365C174.592 6.42715 174.524 6.53352 174.524 6.64954V8.66021C174.524 8.76891 174.584 8.86969 174.682 8.92598C174.735 8.956 174.794 8.97124 174.853 8.97124C174.905 8.97124 174.957 8.95957 175.005 8.93609L181.736 5.63215C181.845 5.57865 181.913 5.47228 181.913 5.35627V3.6148C181.913 3.49894 181.845 3.39241 181.736 3.33891Z" fill="white"/>
<path d="M190.044 3.33891L183.313 0.0351242C183.211 -0.0151075 183.089 -0.0112193 182.99 0.0452331C182.892 0.101685 182.832 0.20246 182.832 0.31101V2.32883C182.832 2.44485 182.9 2.55138 183.01 2.60472L186.848 4.48926L183.01 6.37365C182.9 6.42715 182.832 6.53352 182.832 6.64954V8.66021C182.832 8.76891 182.892 8.86969 182.99 8.92598C183.043 8.956 183.102 8.97124 183.161 8.97124C183.213 8.97124 183.266 8.95957 183.313 8.93609L190.044 5.63215C190.153 5.57865 190.221 5.47228 190.221 5.35627V3.6148C190.221 3.49894 190.153 3.39241 190.044 3.33891Z" fill="white"/>
<path d="M198.353 3.33891L191.623 0.0351242C191.521 -0.0151075 191.398 -0.0112193 191.3 0.0452331C191.202 0.101685 191.142 0.20246 191.142 0.31101V2.32883C191.142 2.44485 191.21 2.55138 191.319 2.60472L195.158 4.48926L191.319 6.37365C191.21 6.42715 191.142 6.53352 191.142 6.64954V8.66021C191.142 8.76891 191.202 8.86969 191.3 8.92598C191.352 8.956 191.412 8.97124 191.471 8.97124C191.523 8.97124 191.575 8.95957 191.623 8.93609L198.353 5.63215C198.462 5.57865 198.531 5.47228 198.531 5.35627V3.6148C198.531 3.49894 198.462 3.39241 198.353 3.33891Z" fill="white"/>
</svg>
