<svg width="74" height="43" viewBox="0 0 74 43" fill="none" xmlns="http://www.w3.org/2000/svg">
<mask id="mask0_1_39329" style="mask-type:alpha" maskUnits="userSpaceOnUse" x="49" y="0" width="25" height="43">
<path fill-rule="evenodd" clip-rule="evenodd" d="M49.2502 0.850464H73.8757V42.9809H49.2502V0.850464Z" fill="#8E8E8E"/>
</mask>
<g mask="url(#mask0_1_39329)">
<path fill-rule="evenodd" clip-rule="evenodd" d="M69.9591 0.874718C69.6378 0.934352 69.4408 1.14218 69.3845 1.48504C69.3375 1.76726 69.3067 2.05602 69.3067 2.34249C69.3005 6.99041 69.2974 11.6376 69.2949 16.2835C69.2949 16.3442 69.2952 16.4041 69.2952 16.4642C69.2952 16.5006 69.2952 16.5363 69.2949 16.5724C69.2931 16.6121 69.2874 16.6498 69.2799 16.7153C69.1612 16.5937 69.0622 16.5006 68.9738 16.3993C67.7947 15.0685 66.4506 14.0064 64.871 13.3352C63.5208 12.7613 62.1481 12.4968 60.7583 12.4968C60.1569 12.4968 59.5515 12.5463 58.9444 12.642C58.6995 12.6807 58.4537 12.7265 58.2083 12.7796C56.2536 13.2028 54.5675 14.2025 53.1743 15.7772C51.5814 17.5776 50.5345 19.7275 49.9172 22.1403C49.4441 23.9968 49.2515 25.8862 49.2502 27.7964C49.2502 28.2596 49.2613 28.7247 49.2828 29.1905C49.347 30.5924 49.525 31.9734 49.8486 33.332C50.4154 35.7048 51.4169 37.815 52.9773 39.5769C54.7196 41.5491 56.8612 42.6061 59.3246 42.8845C59.908 42.95 60.491 42.9837 61.0732 42.9837C62.1082 42.9837 63.1396 42.8763 64.1614 42.6465C68.3671 41.6998 71.2333 38.9389 72.864 34.6008C73.6563 32.4958 73.8602 30.244 73.8665 27.9856C73.8669 27.7876 73.8669 27.5903 73.8677 27.3923C73.8677 27.2471 73.8682 27.1013 73.8686 26.9557C73.8686 26.9115 73.8686 26.8686 73.8691 26.8243C73.8708 25.619 73.8726 24.4135 73.8735 23.2079C73.8735 23.1266 73.8739 23.0454 73.8739 22.9643C73.8739 22.8588 73.8744 22.7536 73.8744 22.6481C73.8744 22.5087 73.8748 22.3684 73.8748 22.2291C73.8748 22.158 73.8748 22.0875 73.8748 22.0164C73.8752 21.5533 73.8752 21.0898 73.8752 20.6267C73.8752 20.6099 73.8752 20.5926 73.8752 20.5758C73.8757 20.3451 73.8757 20.1144 73.8757 19.8836C73.8757 19.8747 73.8757 19.8659 73.8757 19.8567C73.8757 19.6328 73.8757 19.4093 73.8757 19.1854V15.7129C73.8757 15.5517 73.8757 15.3907 73.8757 15.2295C73.8752 11.6081 73.8735 7.98718 73.8752 4.36558C73.8752 3.93583 73.7728 3.5576 73.4721 3.28092C72.8394 2.69685 72.1975 2.12224 71.5507 1.5568C71.334 1.36573 71.0931 1.20444 70.8557 1.04288C70.8521 1.04025 70.849 1.03829 70.8455 1.036C70.7703 0.986489 70.6934 0.947482 70.6143 0.918644C70.4863 0.871758 70.3544 0.850464 70.2186 0.850464C70.1337 0.850464 70.0471 0.858628 69.9591 0.874718ZM59.2156 37.5709C57.5577 37.0127 56.3794 35.8178 55.5365 34.1786C54.9003 32.938 54.5482 31.5958 54.3815 30.1886C54.2966 29.4698 54.255 28.7499 54.254 28.0302C54.2536 27.3953 54.2844 26.7594 54.3451 26.1241C54.5328 24.1811 55.0194 22.3449 56.0061 20.7033C57.0569 18.9517 58.5407 17.9641 60.4282 17.7213C60.5135 17.7104 60.5987 17.7009 60.6836 17.6924C60.9527 17.6662 61.2196 17.6524 61.4856 17.6524C62.43 17.6524 63.3554 17.8234 64.2537 18.2017L64.2546 18.202C64.2624 18.2054 64.2699 18.2086 64.2779 18.2119C64.2941 18.2188 64.3112 18.226 64.328 18.2332C64.3403 18.2385 64.3526 18.2441 64.3645 18.2493L64.3662 18.2502C64.3807 18.2561 64.3952 18.2627 64.4097 18.2692C65.9705 18.9681 67.071 20.2199 67.8356 21.8542C68.372 22.9994 68.6762 24.227 68.8117 25.5033C68.8907 26.2428 68.9229 26.9899 68.9752 27.7352C68.9457 29.595 68.6973 31.4027 67.9952 33.1036C67.3714 34.6114 66.4999 35.9002 65.2156 36.8042C64.346 37.4138 63.3845 37.7292 62.3645 37.8491C62.0273 37.8894 61.6917 37.9114 61.3567 37.9114C60.6349 37.9114 59.92 37.8091 59.2156 37.5709Z" fill="#8E8E8E"/>
</g>
<mask id="mask1_1_39329" style="mask-type:alpha" maskUnits="userSpaceOnUse" x="21" y="12" width="26" height="31">
<path fill-rule="evenodd" clip-rule="evenodd" d="M34.3842 12.6118C33.1646 12.6428 31.9613 12.7929 30.7786 13.1293C28.9808 13.6404 27.3672 14.5387 26.0012 15.9373C23.8876 18.1044 22.6844 20.8092 22.1759 23.9179C21.9714 25.1705 21.8887 26.4321 21.8884 27.6996C21.8884 27.9918 21.8926 28.2848 21.9007 28.5776C21.9593 30.6852 22.2369 32.7467 22.9501 34.7141C24.2172 38.2026 26.3887 40.7162 29.6193 42.0054C30.6123 42.4015 31.6198 42.6738 32.639 42.828C33.313 42.9297 33.9922 42.9797 34.6753 42.9797C35.3033 42.9797 35.9348 42.9378 36.5693 42.8543C36.6969 42.8375 36.8246 42.8189 36.9525 42.7989C37.9732 42.6371 38.9771 42.3707 39.923 41.9037C40.2073 41.7635 40.483 41.5693 40.7153 41.3428C40.8795 41.1839 40.9592 41.0173 40.9582 40.8515C40.9576 40.675 40.8656 40.4996 40.6878 40.3351C40.3988 40.0661 40.0989 39.8122 39.7936 39.564C39.2145 39.093 38.6362 38.6217 38.0414 38.1745C37.8815 38.053 37.6721 37.9784 37.4778 37.9604C37.4605 37.9591 37.4434 37.9578 37.4262 37.9575C37.4123 37.9568 37.3987 37.9565 37.3852 37.9565C37.368 37.9565 37.3514 37.9568 37.3342 37.9578C37.1682 37.965 36.9987 38.0055 36.8336 38.0415C35.7824 38.2693 34.729 38.3439 33.6733 38.1892C33.5176 38.1667 33.362 38.1386 33.2059 38.1056C33.1965 38.1036 33.1869 38.1017 33.1775 38.0993C30.6264 37.5505 28.8393 35.9509 27.8128 33.3282C27.3774 32.2175 27.2088 31.0356 27.1553 29.8324C27.1493 29.6971 27.1475 29.5621 27.1479 29.4258C27.1481 29.198 27.1535 28.9665 27.1535 28.7243H27.4199C33.2714 28.7243 39.1255 28.7218 44.9765 28.7283C45.4714 28.729 45.8409 28.5292 46.0637 28.1162C46.1038 28.0426 46.1385 27.9618 46.1693 27.8748C46.3161 27.4467 46.4242 26.9855 46.4682 26.5298C46.4993 26.1885 46.5138 25.8483 46.5138 25.5091C46.5143 24.4909 46.3824 23.4815 46.1548 22.4856C45.6423 20.2463 44.6108 18.3185 43.2366 16.6008C42.02 15.0832 40.5572 13.9643 38.8148 13.306C38.3422 13.1279 37.8649 12.9874 37.3834 12.8805L37.3818 12.8802C37.3782 12.8791 37.374 12.8786 37.3703 12.8775C36.8185 12.756 36.2612 12.6789 35.6988 12.6389C35.6889 12.6383 35.6789 12.6376 35.6686 12.637L35.6674 12.6366C35.3681 12.6164 35.0673 12.6066 34.7652 12.6066C34.6388 12.6066 34.5112 12.6085 34.3842 12.6118ZM27.2948 23.8201C27.6502 22.4712 28.1417 21.1923 28.9075 20.058C30.176 18.1766 31.8885 17.2313 33.9995 17.1323C34.077 17.1286 34.1545 17.1257 34.2321 17.1241C34.3 17.1225 34.3676 17.1215 34.4354 17.1215C35.3666 17.1215 36.2796 17.2715 37.1558 17.6628C38.6319 18.32 39.6345 19.5102 40.3022 21.0713C40.7 22.0058 40.9504 22.9903 41.1115 24.0042C41.1181 24.0437 41.1181 24.0837 41.1227 24.1412H27.2157C27.2447 24.0254 27.2685 23.9225 27.2948 23.8201Z" fill="#8E8E8E"/>
</mask>
<g mask="url(#mask1_1_39329)">
<path fill-rule="evenodd" clip-rule="evenodd" d="M21.8884 42.9797H46.5143V12.6066H21.8884V42.9797Z" fill="#8E8E8E"/>
</g>
<mask id="mask2_1_39329" style="mask-type:alpha" maskUnits="userSpaceOnUse" x="0" y="12" width="21" height="31">
<path fill-rule="evenodd" clip-rule="evenodd" d="M0 12.607H20.9772V42.9801H0V12.607Z" fill="#8E8E8E"/>
</mask>
<g mask="url(#mask2_1_39329)">
<path fill-rule="evenodd" clip-rule="evenodd" d="M8.69118 13.1339C4.8292 14.2671 2.15844 16.8294 0.813839 20.9366C0.212963 22.7725 0.0174247 24.6839 0.00620565 26.6184C-0.000335001 27.5198 -0.00219727 28.4219 -0.00219727 29.3237C-0.00219727 30.6416 0.00216316 31.9592 0.00216316 33.2759V40.9691C0.00216316 41.1209 -1.70534e-05 41.2736 -1.70534e-05 41.4262C0.000300894 41.4959 0.000618842 41.5651 0.00216316 41.6348C0.0165162 42.4464 0.376661 42.9008 1.12412 42.9538C1.35144 42.9701 1.57941 42.9773 1.80765 42.9795C1.88028 42.9802 1.95295 42.9805 2.0259 42.9805C2.35956 42.9805 2.69355 42.9741 3.02721 42.9741C3.30223 42.9727 3.58066 42.977 3.85356 42.9433C4.43195 42.8739 4.79214 42.4562 4.83516 41.8304C4.84356 41.6786 4.84514 41.526 4.84514 41.3732C4.84982 36.6256 4.84855 31.8778 4.86291 27.1298C4.867 25.7663 5.01289 24.4193 5.40455 23.1154C5.81616 21.7531 6.41454 20.5014 7.38123 19.5012C7.97648 18.8852 8.60979 18.407 9.27747 18.0565L9.28112 18.0542L9.28212 18.0538C10.7199 17.2996 12.3155 17.1351 14.0284 17.4575C15.2947 17.6968 16.0356 18.5744 16.2261 19.9195C16.2598 20.1597 16.2698 20.4023 16.2854 20.6433C16.3343 21.4156 16.7362 21.9096 17.4447 21.9717C18.0512 22.025 18.6615 22.0106 19.2705 22.0146C19.2773 22.0146 19.2839 22.0146 19.2907 22.0146C20.06 22.0146 20.6026 21.5846 20.8487 20.7911C20.9291 20.5331 20.9656 20.27 20.9777 20.0032V19.5124C20.9771 19.4931 20.9765 19.4738 20.9755 19.4542C20.9073 17.8237 20.3497 16.422 19.2643 15.2865C17.7578 13.7097 15.9249 12.8854 13.8587 12.6807C13.6701 12.6621 13.4818 12.6467 13.2934 12.6349C12.9981 12.6166 12.7031 12.6074 12.4087 12.6074C11.1556 12.6074 9.91226 12.7755 8.69118 13.1339Z" fill="#8E8E8E"/>
</g>
</svg>
