<svg width="23" height="18" viewBox="0 0 23 18" fill="none" xmlns="http://www.w3.org/2000/svg">
<path d="M22.1967 2.13023C21.3801 2.49231 20.5032 2.73669 19.5812 2.84538C20.5212 2.28323 21.2434 1.39292 21.5841 0.332308C20.7037 0.852231 19.7297 1.23162 18.6925 1.43446C17.8614 0.551769 16.6779 0 15.3674 0C12.8525 0 10.815 2.034 10.815 4.54362C10.815 4.89946 10.8545 5.247 10.9322 5.57931C7.14782 5.38962 3.79285 3.58062 1.54649 0.831462C1.15521 1.503 0.930435 2.28323 0.930435 3.11608C0.930435 4.69315 1.73449 6.08331 2.95549 6.89885C2.20971 6.87462 1.50763 6.67108 0.893666 6.33046C0.892972 6.34915 0.892972 6.36923 0.892972 6.38723C0.892972 8.58946 2.46224 10.4262 4.54557 10.8436C4.164 10.9468 3.76163 11.0028 3.34607 11.0028C3.05192 11.0028 2.76749 10.9745 2.48999 10.9218C3.06857 12.726 4.75092 14.04 6.74267 14.0774C5.1852 15.2958 3.22189 16.0235 1.08861 16.0235C0.720922 16.0235 0.358091 16.002 0.00219727 15.9598C2.01685 17.2475 4.41029 18 6.98202 18C15.357 18 19.9378 11.0762 19.9378 5.07115C19.9378 4.87454 19.9323 4.67792 19.9239 4.48269C20.814 3.84231 21.5855 3.04269 22.1967 2.13023Z" fill="#55ACEE"/>
</svg>
